<?xml version="1.0" standalone="no"?>
<!DOCTYPE svg PUBLIC "-//W3C//DTD SVG 20010904//EN"
 "http://www.w3.org/TR/2001/REC-SVG-20010904/DTD/svg10.dtd">
<svg version="1.0" xmlns="http://www.w3.org/2000/svg"
 width="700.000000pt" height="700.000000pt" viewBox="0 0 700.000000 700.000000"
 preserveAspectRatio="xMidYMid meet">
<metadata>
Created by potrace 1.14, written by Peter Selinger 2001-2017
</metadata>
<g transform="translate(0.000000,700.000000) scale(0.100000,-0.100000)"
fill="#000000" stroke="none">
<path d="M3451 6285 c0 -16 3 -77 8 -135 28 -314 31 -615 7 -750 -9 -47 -18
-110 -22 -140 -3 -30 -8 -58 -11 -62 -6 -11 -5 -263 2 -343 21 -254 73 -692
85 -715 5 -8 7 26 5 75 -6 160 -6 758 1 830 3 39 14 131 25 205 43 294 17 601
-85 1010 -11 42 -14 48 -15 25z"/>
<path d="M2563 5263 c-98 -215 -133 -346 -133 -495 0 -86 5 -119 30 -201 47
-155 53 -236 47 -562 l-6 -290 29 100 c43 145 95 393 106 500 3 33 7 69 8 80
7 40 -15 149 -45 234 -29 79 -32 98 -35 231 -2 136 4 210 36 408 6 41 10 76 7
78 -2 2 -22 -35 -44 -83z"/>
<path d="M4321 5107 c-63 -165 -99 -311 -107 -432 -6 -77 -2 -109 22 -220 28
-128 29 -134 27 -427 -1 -164 0 -298 2 -298 15 0 85 429 90 555 4 96 1 122
-22 205 -24 85 -26 112 -26 255 1 88 8 210 16 270 15 114 14 136 -2 92z"/>
<path d="M2294 3555 c-157 -36 -266 -155 -308 -335 -16 -66 -17 -300 -2 -363
22 -91 78 -190 137 -241 35 -29 119 -73 161 -82 50 -12 195 -10 248 3 150 39
255 154 276 303 l5 35 -112 0 -113 0 -11 -43 c-23 -94 -99 -141 -206 -129 -86
10 -134 62 -158 166 -16 71 -7 338 13 393 33 90 99 131 198 122 88 -7 145 -55
155 -132 3 -23 8 -43 12 -43 3 -1 55 -2 114 -3 l108 -2 -5 36 c-18 126 -98
235 -211 286 -83 38 -208 50 -301 29z"/>
<path d="M2939 3543 c-1 -5 -2 -230 -3 -501 -1 -322 2 -496 9 -500 5 -4 56 -7
113 -7 84 0 102 2 103 15 1 8 2 101 2 205 l2 190 197 0 c125 0 198 4 199 10 1
14 1 126 0 150 -1 19 -8 20 -196 19 -168 0 -195 2 -199 15 -2 9 -3 65 -2 126
l1 109 215 2 c118 1 218 2 222 3 3 0 7 39 7 86 l1 85 -335 0 c-184 0 -336 -3
-336 -7z"/>
<path d="M3720 3503 c-1 -70 -1 -914 -1 -943 l1 -26 203 2 c228 2 279 13 378
76 142 91 210 246 203 463 -7 234 -125 397 -331 458 -38 11 -104 16 -252 17
l-201 1 0 -48z m426 -154 c89 -42 128 -138 127 -309 -1 -171 -42 -263 -137
-309 -48 -23 -181 -29 -188 -9 -3 11 -3 630 1 649 3 16 155 -1 197 -22z"/>
<path d="M4852 3388 c-29 -90 -105 -325 -170 -523 l-118 -360 -1389 -5 -1390
-5 1 -145 c0 -151 9 -315 18 -340 3 -8 7 -31 10 -50 3 -19 7 -46 10 -60 3 -14
8 -34 10 -46 20 -101 117 -328 187 -441 255 -407 636 -664 1114 -749 148 -27
527 -26 700 1 237 38 482 141 688 291 298 216 523 554 608 912 34 143 40 197
45 419 l5 213 -229 2 -229 3 33 100 c18 55 93 287 168 516 75 229 136 419 136
422 0 4 -35 7 -78 7 l-78 0 -52 -162z"/>
<path d="M5159 3289 c-3 -62 -1 -181 3 -184 2 -2 80 -31 173 -64 94 -32 180
-63 193 -68 23 -9 27 -8 -280 -113 -43 -15 -81 -29 -84 -33 -8 -8 -10 -185 -2
-192 3 -3 21 1 39 9 19 8 52 22 74 31 22 10 53 23 69 31 16 8 33 14 38 14 5 0
29 9 54 20 24 11 64 29 88 40 25 11 50 20 56 20 5 0 18 5 28 10 9 6 49 24 87
40 l70 29 3 86 3 85 -48 21 c-48 21 -319 133 -463 191 -41 17 -81 35 -87 41
-10 7 -13 3 -14 -14z"/>
<path d="M1520 3176 l-295 -123 0 -87 0 -88 85 -34 c47 -19 94 -38 105 -44 32
-15 406 -170 411 -170 3 0 3 46 2 102 l-3 101 -115 38 c-63 21 -123 43 -132
49 -10 5 -26 10 -35 11 -10 0 -36 8 -58 18 l-39 17 104 38 c58 20 108 36 111
34 3 -2 12 2 20 8 8 6 44 21 82 33 l67 23 1 61 c0 34 1 79 2 100 1 20 -2 37
-8 37 -5 -1 -143 -56 -305 -124z"/>
</g>
</svg>
